{
  "accessors": [
    {
      "bufferView": 2,
      "componentType": 5126,
      "count": 2828,
      "max": [
        1.012302041053772,
        1.0217444896697998,
        1.8072056770324707
      ],
      "min": [
        -1.018749475479126,
        -1.0120956897735596,
        -3.9809823036193848
      ],
      "type": "VEC3"
    },
    {
      "bufferView": 2,
      "byteOffset": 33936,
      "componentType": 5126,
      "count": 2828,
      "max": [
        0.997859001159668,
        0.9992291331291199,
        1.0
      ],
      "min": [
        -0.997859001159668,
        -0.9992291331291199,
        -0.9998899102210999
      ],
      "type": "VEC3"
    },
    {
      "bufferView": 1,
      "componentType": 5126,
      "count": 2828,
      "max": [
        0.9675165414810181,
        0.9857040047645569
      ],
      "min": [
        0.0,
        0.0
      ],
      "type": "VEC2"
    },
    {
      "bufferView": 0,
      "componentType": 5125,
      "count": 8268,
      "type": "SCALAR"
    },
    {
      "bufferView": 2,
      "byteOffset": 67872,
      "componentType": 5126,
      "count": 2994,
      "max": [
        1.0003992319107056,
        1.0003992319107056,
        1.0000019073486328
      ],
      "min": [
        -1.0003992319107056,
        -1.0003992319107056,
        -1.081405758857727
      ],
      "type": "VEC3"
    },
    {
      "bufferView": 2,
      "byteOffset": 103800,
      "componentType": 5126,
      "count": 2994,
      "max": [
        0.9999990463256836,
        0.9999989867210388,
        1.0
      ],
      "min": [
        -0.9999989867210388,
        -0.9999989867210388,
        -1.0
      ],
      "type": "VEC3"
    },
    {
      "bufferView": 1,
      "byteOffset": 22624,
      "componentType": 5126,
      "count": 2994,
      "max": [
        0.1722250133752823,
        0.11190477013587952
      ],
      "min": [
        0.08421371877193451,
        0.06674066185951233
      ],
      "type": "VEC2"
    },
    {
      "bufferView": 0,
      "byteOffset": 33072,
      "componentType": 5125,
      "count": 9696,
      "type": "SCALAR"
    },
    {
      "bufferView": 2,
      "byteOffset": 139728,
      "componentType": 5126,
      "count": 7098,
      "max": [
        1.1061373949050903,
        36.32528305053711,
        62.22246551513672
      ],
      "min": [
        -76.73551940917969,
        -30.680877685546875,
        -29.68675994873047
      ],
      "type": "VEC3"
    },
    {
      "bufferView": 2,
      "byteOffset": 224904,
      "componentType": 5126,
      "count": 7098,
      "max": [
        0.9996296167373657,
        0.9999809265136719,
        0.9981043338775635
      ],
      "min": [
        -0.9997545480728149,
        -0.9998476505279541,
        -0.9981889724731445
      ],
      "type": "VEC3"
    },
    {
      "bufferView": 1,
      "byteOffset": 46576,
      "componentType": 5126,
      "count": 7098,
      "max": [
        0.14272844791412354,
        0.5170249938964844
      ],
      "min": [
        0.06736022233963013,
        0.4165339469909668
      ],
      "type": "VEC2"
    },
    {
      "bufferView": 0,
      "byteOffset": 71856,
      "componentType": 5125,
      "count": 26208,
      "type": "SCALAR"
    }
  ],
  "asset": {
    "extras": {
      "author": "moonbrosproductions (https://sketchfab.com/moonbrosproductions)",
      "license": "CC-BY-4.0 (http://creativecommons.org/licenses/by/4.0/)",
      "source": "https://sketchfab.com/3d-models/pepsi-bottle-95c4a54bd5ec4322a56e08df5631e850",
      "title": "pepsi bottle"
    },
    "generator": "Sketchfab-15.77.0",
    "version": "2.0"
  },
  "bufferViews": [
    {
      "buffer": 0,
      "byteLength": 176688,
      "name": "floatBufferViews",
      "target": 34963
    },
    {
      "buffer": 0,
      "byteLength": 103360,
      "byteOffset": 176688,
      "byteStride": 8,
      "name": "floatBufferViews",
      "target": 34962
    },
    {
      "buffer": 0,
      "byteLength": 310080,
      "byteOffset": 280048,
      "byteStride": 12,
      "name": "floatBufferViews",
      "target": 34962
    }
  ],
  "buffers": [
    {
      "byteLength": 590128,
      "uri": "scene.bin"
    }
  ],
  "extensionsUsed": [
    "KHR_materials_transmission"
  ],
  "images": [
    {
      "uri": "textures/Material.001_baseColor.png"
    },
    {
      "uri": "textures/Material.001_metallicRoughness.png"
    },
    {
      "uri": "textures/Material.001_transmission.png"
    }
  ],
  "materials": [
    {
      "alphaMode": "BLEND",
      "doubleSided": true,
      "extensions": {
        "KHR_materials_transmission": {
          "transmissionFactor": 1.0,
          "transmissionTexture": {
            "index": 2
          }
        }
      },
      "name": "Material.001",
      "pbrMetallicRoughness": {
        "baseColorFactor": [
          0.4987199530935721,
          0.4987199530935721,
          0.4987199530935721,
          1.0
        ],
        "baseColorTexture": {
          "index": 0
        },
        "metallicFactor": 0.0,
        "metallicRoughnessTexture": {
          "index": 1
        }
      }
    }
  ],
  "meshes": [
    {
      "name": "Circle_Material.001_0",
      "primitives": [
        {
          "attributes": {
            "NORMAL": 1,
            "POSITION": 0,
            "TEXCOORD_0": 2
          },
          "indices": 3,
          "material": 0,
          "mode": 4
        }
      ]
    },
    {
      "name": "Cylinder_Material.001_0",
      "primitives": [
        {
          "attributes": {
            "NORMAL": 5,
            "POSITION": 4,
            "TEXCOORD_0": 6
          },
          "indices": 7,
          "material": 0,
          "mode": 4
        }
      ]
    },
    {
      "name": "condensation_Material.001_0",
      "primitives": [
        {
          "attributes": {
            "NORMAL": 9,
            "POSITION": 8,
            "TEXCOORD_0": 10
          },
          "indices": 11,
          "material": 0,
          "mode": 4
        }
      ]
    }
  ],
  "nodes": [
    {
      "children": [
        1
      ],
      "matrix": [
        2.220446049250313e-16,
        6.123234262925839e-17,
        -1.0,
        0.0,
        -1.0,
        1.6081226229577296e-16,
        -2.2204460492503128e-16,
        0.0,
        1.6081226229577292e-16,
        1.0,
        6.123234262925839e-17,
        0.0,
        0.0,
        0.0,
        0.0,
        1.0
      ],
      "name": "Sketchfab_model"
    },
    {
      "children": [
        2
      ],
      "matrix": [
        0.009999999776482582,
        0.0,
        0.0,
        0.0,
        0.0,
        0.0,
        0.009999999776482582,
        0.0,
        0.0,
        -0.009999999776482582,
        0.0,
        0.0,
        0.0,
        0.0,
        0.0,
        1.0
      ],
      "name": "2f38f31a84cb4884937dad02714a97af.fbx"
    },
    {
      "children": [
        3,
        5,
        7
      ],
      "name": "RootNode"
    },
    {
      "children": [
        4
      ],
      "matrix": [
        100.0,
        0.0,
        0.0,
        0.0,
        0.0,
        -1.629206793918314e-05,
        -99.99999999999868,
        0.0,
        0.0,
        99.99999999999868,
        -1.629206793918314e-05,
        0.0,
        0.0,
        384.3104553222656,
        0.0,
        1.0
      ],
      "name": "Circle"
    },
    {
      "mesh": 0,
      "name": "Circle_Material.001_0"
    },
    {
      "children": [
        6
      ],
      "matrix": [
        38.14729309082016,
        3.3349424040189834e-06,
        -0.0,
        -0.0,
        5.433310833764281e-13,
        -6.214982928491763e-06,
        -38.1472930908198,
        -0.0,
        1.6450890908217504e-06,
        -18.817625045776044,
        3.0657802653553327e-06,
        -0.0,
        0.0,
        554.2695922851563,
        0.0,
        1.0
      ],
      "name": "Cylinder"
    },
    {
      "mesh": 1,
      "name": "Cylinder_Material.001_0"
    },
    {
      "children": [
        8
      ],
      "matrix": [
        -2.9166800128027104,
        -1.2964318519290525,
        0.8318362823138796,
        0.0,
        0.657317603287746,
        0.5633823282233489,
        3.182804076940263,
        0.0,
        -1.3930613093408795,
        2.980196361339108,
        -0.23982193847726097,
        0.0,
        -90.8672103881836,
        24.447608947753906,
        23.065202713012695,
        1.0
      ],
      "name": "condensation"
    },
    {
      "mesh": 2,
      "name": "condensation_Material.001_0"
    }
  ],
  "samplers": [
    {
      "magFilter": 9729,
      "minFilter": 9987,
      "wrapS": 10497,
      "wrapT": 10497
    }
  ],
  "scene": 0,
  "scenes": [
    {
      "name": "Sketchfab_Scene",
      "nodes": [
        0
      ]
    }
  ],
  "textures": [
    {
      "sampler": 0,
      "source": 0
    },
    {
      "sampler": 0,
      "source": 1
    },
    {
      "sampler": 0,
      "source": 2
    }
  ]
}
