{
  "accessors": [
    {
      "bufferView": 2,
      "componentType": 5126,
      "count": 1867,
      "max": [
        1.5913050174713135,
        0.18911899626255035,
        1.594992995262146
      ],
      "min": [
        -1.5905410051345825,
        -0.4309850037097931,
        -1.5950100421905518
      ],
      "type": "VEC3"
    },
    {
      "bufferView": 2,
      "byteOffset": 22404,
      "componentType": 5126,
      "count": 1867,
      "max": [
        0.9972060918807983,
        1.0,
        1.0
      ],
      "min": [
        -0.9972060918807983,
        -1.0,
        -1.0
      ],
      "type": "VEC3"
    },
    {
      "bufferView": 1,
      "componentType": 5126,
      "count": 1867,
      "max": [
        1.0,
        1.0
      ],
      "min": [
        0.0,
        0.0
      ],
      "type": "VEC2"
    },
    {
      "bufferView": 0,
      "componentType": 5125,
      "count": 9288,
      "type": "SCALAR"
    },
    {
      "bufferView": 2,
      "byteOffset": 44808,
      "componentType": 5126,
      "count": 829,
      "max": [
        1.2852849960327148,
        0.42152899503707886,
        1.2888920307159424
      ],
      "min": [
        -1.2852849960327148,
        0.18904800713062286,
        -1.2888859510421753
      ],
      "type": "VEC3"
    },
    {
      "bufferView": 2,
      "byteOffset": 54756,
      "componentType": 5126,
      "count": 829,
      "max": [
        1.0,
        1.0,
        1.0
      ],
      "min": [
        -1.0,
        -1.0,
        -1.0
      ],
      "type": "VEC3"
    },
    {
      "bufferView": 1,
      "byteOffset": 14936,
      "componentType": 5126,
      "count": 829,
      "max": [
        1.0,
        1.0
      ],
      "min": [
        0.0,
        0.0
      ],
      "type": "VEC2"
    },
    {
      "bufferView": 0,
      "byteOffset": 37152,
      "componentType": 5125,
      "count": 3882,
      "type": "SCALAR"
    }
  ],
  "asset": {
    "extras": {
      "author": "rtql8d (https://sketchfab.com/rtql8d)",
      "license": "CC-BY-4.0 (http://creativecommons.org/licenses/by/4.0/)",
      "source": "https://sketchfab.com/3d-models/apple-airtag-892c1c2ddc6045e68eb796bfe097bfdf",
      "title": "Apple AirTag"
    },
    "generator": "Sketchfab-12.68.0",
    "version": "2.0"
  },
  "bufferViews": [
    {
      "buffer": 0,
      "byteLength": 52680,
      "name": "floatBufferViews",
      "target": 34963
    },
    {
      "buffer": 0,
      "byteLength": 21568,
      "byteOffset": 52680,
      "byteStride": 8,
      "name": "floatBufferViews",
      "target": 34962
    },
    {
      "buffer": 0,
      "byteLength": 64704,
      "byteOffset": 74248,
      "byteStride": 12,
      "name": "floatBufferViews",
      "target": 34962
    }
  ],
  "buffers": [
    {
      "byteLength": 138952,
      "uri": "scene.bin"
    }
  ],
  "images": [
    {
      "uri": "textures/Steel_-_Satin_baseColor.jpeg"
    },
    {
      "uri": "textures/Steel_-_Satin_metallicRoughness.png"
    }
  ],
  "materials": [
    {
      "doubleSided": true,
      "name": "Plastic_-_Translucent_Matte_White",
      "pbrMetallicRoughness": {
        "metallicFactor": 0.5,
        "roughnessFactor": 0.5
      }
    },
    {
      "doubleSided": true,
      "name": "Steel_-_Satin",
      "pbrMetallicRoughness": {
        "baseColorTexture": {
          "index": 0
        },
        "metallicFactor": 0.5,
        "metallicRoughnessTexture": {
          "index": 1
        },
        "roughnessFactor": 0.2
      }
    }
  ],
  "meshes": [
    {
      "name": "Object_0",
      "primitives": [
        {
          "attributes": {
            "NORMAL": 1,
            "POSITION": 0,
            "TEXCOORD_0": 2
          },
          "indices": 3,
          "material": 0,
          "mode": 4
        }
      ]
    },
    {
      "name": "Object_1",
      "primitives": [
        {
          "attributes": {
            "NORMAL": 5,
            "POSITION": 4,
            "TEXCOORD_0": 6
          },
          "indices": 7,
          "material": 1,
          "mode": 4
        }
      ]
    }
  ],
  "nodes": [
    {
      "children": [
        1
      ],
      "matrix": [
        -0.9999467730522156,
        0.010316785424947739,
        -3.647133098636442e-06,
        0.0,
        -3.64693914889358e-06,
        3.7626690874148494e-08,
        1.0,
        0.0,
        0.010316785424947739,
        0.9999467730522156,
        5.695131899982695e-18,
        0.0,
        0.0007654546643607318,
        -3.948109224440766e-06,
        0.0094546964392066,
        1.0
      ],
      "name": "Sketchfab_model"
    },
    {
      "children": [
        2,
        3
      ],
      "name": "AirTag.obj.cleaner.materialmerger.gles"
    },
    {
      "mesh": 0,
      "name": "Object_2"
    },
    {
      "mesh": 1,
      "name": "Object_3"
    }
  ],
  "samplers": [
    {
      "magFilter": 9729,
      "minFilter": 9987,
      "wrapS": 10497,
      "wrapT": 10497
    }
  ],
  "scene": 0,
  "scenes": [
    {
      "name": "Sketchfab_Scene",
      "nodes": [
        0
      ]
    }
  ],
  "textures": [
    {
      "sampler": 0,
      "source": 0
    },
    {
      "sampler": 0,
      "source": 1
    }
  ]
}
