{
  "accessors": [
    {
      "bufferView": 2,
      "componentType": 5126,
      "count": 671,
      "max": [
        4.314478397369385,
        4.138325214385986,
        9.842235565185547
      ],
      "min": [
        -4.1846771240234375,
        -4.122838020324707,
        -6.046413898468018
      ],
      "type": "VEC3"
    },
    {
      "bufferView": 2,
      "byteOffset": 8052,
      "componentType": 5126,
      "count": 671,
      "max": [
        0.9892323017120361,
        0.9993091821670532,
        0.9998416304588318
      ],
      "min": [
        -0.944428563117981,
        -0.9994665384292603,
        -0.9035696983337402
      ],
      "type": "VEC3"
    },
    {
      "bufferView": 1,
      "componentType": 5126,
      "count": 671,
      "max": [
        0.875,
        1.0
      ],
      "min": [
        0.1250000298023224,
        0.0
      ],
      "type": "VEC2"
    },
    {
      "bufferView": 0,
      "componentType": 5125,
      "count": 3600,
      "type": "SCALAR"
    },
    {
      "bufferView": 2,
      "byteOffset": 16104,
      "componentType": 5126,
      "count": 512,
      "max": [
        0.49770572781562805,
        0.4049426019191742,
        0.06325545907020569
      ],
      "min": [
        -0.5261481404304504,
        -0.37468385696411133,
        -0.0555557981133461
      ],
      "type": "VEC3"
    },
    {
      "bufferView": 2,
      "byteOffset": 22248,
      "componentType": 5126,
      "count": 512,
      "max": [
        0.9675658345222473,
        0.9806259274482727,
        0.9996801614761353
      ],
      "min": [
        -0.9812750220298767,
        -0.9694602489471436,
        -0.9996578693389893
      ],
      "type": "VEC3"
    },
    {
      "bufferView": 1,
      "byteOffset": 5368,
      "componentType": 5126,
      "count": 512,
      "max": [
        1.0,
        1.0
      ],
      "min": [
        0.0,
        0.0
      ],
      "type": "VEC2"
    },
    {
      "bufferView": 0,
      "byteOffset": 14400,
      "componentType": 5125,
      "count": 2880,
      "type": "SCALAR"
    },
    {
      "bufferView": 2,
      "byteOffset": 28392,
      "componentType": 5126,
      "count": 65532,
      "max": [
        5.595564842224121,
        0.7683538198471069,
        2.210540533065796
      ],
      "min": [
        -5.596375465393066,
        -0.9395490288734436,
        -1.6817846298217773
      ],
      "type": "VEC3"
    },
    {
      "bufferView": 2,
      "byteOffset": 814776,
      "componentType": 5126,
      "count": 65532,
      "max": [
        0.9999880194664001,
        0.9999750852584839,
        0.9999582171440125
      ],
      "min": [
        -0.9999874830245972,
        -0.9998615384101868,
        -0.9999788999557495
      ],
      "type": "VEC3"
    },
    {
      "bufferView": 1,
      "byteOffset": 9464,
      "componentType": 5126,
      "count": 65532,
      "max": [
        1.000000238418579,
        1.000000238418579
      ],
      "min": [
        0.0,
        0.0
      ],
      "type": "VEC2"
    },
    {
      "bufferView": 0,
      "byteOffset": 25920,
      "componentType": 5125,
      "count": 318306,
      "type": "SCALAR"
    },
    {
      "bufferView": 2,
      "byteOffset": 1601160,
      "componentType": 5126,
      "count": 65532,
      "max": [
        5.581140041351318,
        0.6589465141296387,
        2.2105374336242676
      ],
      "min": [
        -5.591054439544678,
        -0.9398019909858704,
        -1.680270791053772
      ],
      "type": "VEC3"
    },
    {
      "bufferView": 2,
      "byteOffset": 2387544,
      "componentType": 5126,
      "count": 65532,
      "max": [
        0.9996920228004456,
        0.9996627569198608,
        0.9999435544013977
      ],
      "min": [
        -0.999976634979248,
        -0.9999040961265564,
        -0.999984622001648
      ],
      "type": "VEC3"
    },
    {
      "bufferView": 1,
      "byteOffset": 533720,
      "componentType": 5126,
      "count": 65532,
      "max": [
        1.0000001192092896,
        1.0000001192092896
      ],
      "min": [
        0.0,
        0.0
      ],
      "type": "VEC2"
    },
    {
      "bufferView": 0,
      "byteOffset": 1299144,
      "componentType": 5125,
      "count": 348750,
      "type": "SCALAR"
    },
    {
      "bufferView": 2,
      "byteOffset": 3173928,
      "componentType": 5126,
      "count": 55058,
      "max": [
        5.595564842224121,
        0.6593452095985413,
        2.210540771484375
      ],
      "min": [
        -5.5753583908081055,
        -0.9400427341461182,
        -1.6817846298217773
      ],
      "type": "VEC3"
    },
    {
      "bufferView": 2,
      "byteOffset": 3834624,
      "componentType": 5126,
      "count": 55058,
      "max": [
        0.9999840259552002,
        0.9998957514762878,
        0.9999457597732544
      ],
      "min": [
        -0.9990050196647644,
        -0.9999778866767883,
        -0.9999732375144958
      ],
      "type": "VEC3"
    },
    {
      "bufferView": 1,
      "byteOffset": 1057976,
      "componentType": 5126,
      "count": 55058,
      "max": [
        1.0000001192092896,
        1.000000238418579
      ],
      "min": [
        0.0,
        0.0
      ],
      "type": "VEC2"
    },
    {
      "bufferView": 0,
      "byteOffset": 2694144,
      "componentType": 5125,
      "count": 285264,
      "type": "SCALAR"
    },
    {
      "bufferView": 2,
      "byteOffset": 4495320,
      "componentType": 5126,
      "count": 672,
      "max": [
        7.4601640701293945,
        7.071566104888916,
        12.97825813293457
      ],
      "min": [
        -1.0680557489395142,
        -1.162229299545288,
        -2.7887661457061768
      ],
      "type": "VEC3"
    },
    {
      "bufferView": 2,
      "byteOffset": 4503384,
      "componentType": 5126,
      "count": 672,
      "max": [
        0.9892323613166809,
        0.999309241771698,
        0.9998415112495422
      ],
      "min": [
        -0.9997578263282776,
        -0.9999257922172546,
        -0.8991872072219849
      ],
      "type": "VEC3"
    },
    {
      "bufferView": 1,
      "byteOffset": 1498440,
      "componentType": 5126,
      "count": 672,
      "max": [
        0.875,
        1.0
      ],
      "min": [
        0.1250000298023224,
        0.0
      ],
      "type": "VEC2"
    },
    {
      "bufferView": 0,
      "byteOffset": 3835200,
      "componentType": 5125,
      "count": 3600,
      "type": "SCALAR"
    },
    {
      "bufferView": 2,
      "byteOffset": 4511448,
      "componentType": 5126,
      "count": 4220,
      "max": [
        -0.08786849677562714,
        -0.05091065168380737,
        0.6356053352355957
      ],
      "min": [
        -0.7997430562973022,
        -0.7911447882652283,
        -1.7650529146194458
      ],
      "type": "VEC3"
    },
    {
      "bufferView": 2,
      "byteOffset": 4562088,
      "componentType": 5126,
      "count": 4220,
      "max": [
        0.04151291400194168,
        0.999980628490448,
        0.9973775744438171
      ],
      "min": [
        -0.9991310834884644,
        -0.9992745518684387,
        -0.9996088743209839
      ],
      "type": "VEC3"
    },
    {
      "bufferView": 1,
      "byteOffset": 1503816,
      "componentType": 5126,
      "count": 4220,
      "max": [
        0.0,
        0.0
      ],
      "min": [
        0.0,
        0.0
      ],
      "type": "VEC2"
    },
    {
      "bufferView": 0,
      "byteOffset": 3849600,
      "componentType": 5125,
      "count": 23136,
      "type": "SCALAR"
    },
    {
      "bufferView": 2,
      "byteOffset": 4612728,
      "componentType": 5126,
      "count": 512,
      "max": [
        0.4976937770843506,
        0.4049833416938782,
        0.06325186043977737
      ],
      "min": [
        -0.5261558890342712,
        -0.37464311718940735,
        -0.05555940046906471
      ],
      "type": "VEC3"
    },
    {
      "bufferView": 2,
      "byteOffset": 4618872,
      "componentType": 5126,
      "count": 512,
      "max": [
        0.9675635099411011,
        0.9806259274482727,
        0.9996800422668457
      ],
      "min": [
        -0.9812690019607544,
        -0.9694632291793823,
        -0.9996578693389893
      ],
      "type": "VEC3"
    },
    {
      "bufferView": 1,
      "byteOffset": 1537576,
      "componentType": 5126,
      "count": 512,
      "max": [
        1.0,
        1.0
      ],
      "min": [
        0.0,
        0.0
      ],
      "type": "VEC2"
    },
    {
      "bufferView": 0,
      "byteOffset": 3942144,
      "componentType": 5125,
      "count": 2880,
      "type": "SCALAR"
    }
  ],
  "asset": {
    "extras": {
      "author": "parth.mothrills (https://sketchfab.com/parth.mothrills)",
      "license": "CC-BY-4.0 (http://creativecommons.org/licenses/by/4.0/)",
      "source": "https://sketchfab.com/3d-models/rayban-sunglasses-5594893683184664b166db8a28a55bc0",
      "title": "Rayban Sunglasses"
    },
    "generator": "Sketchfab-13.24.1",
    "version": "2.0"
  },
  "bufferViews": [
    {
      "buffer": 0,
      "byteLength": 3953664,
      "name": "floatBufferViews",
      "target": 34963
    },
    {
      "buffer": 0,
      "byteLength": 1541672,
      "byteOffset": 3953664,
      "byteStride": 8,
      "name": "floatBufferViews",
      "target": 34962
    },
    {
      "buffer": 0,
      "byteLength": 4625016,
      "byteOffset": 5495336,
      "byteStride": 12,
      "name": "floatBufferViews",
      "target": 34962
    }
  ],
  "buffers": [
    {
      "byteLength": 10120352,
      "uri": "scene.bin"
    }
  ],
  "materials": [
    {
      "doubleSided": true,
      "name": "sunglass",
      "pbrMetallicRoughness": {
        "baseColorFactor": [
          0.0,
          0.0,
          0.0,
          1.0
        ],
        "roughnessFactor": 0.409091
      }
    },
    {
      "doubleSided": true,
      "name": "lambert1",
      "pbrMetallicRoughness": {
        "baseColorFactor": [
          0.0,
          0.0,
          0.0,
          1.0
        ],
        "metallicFactor": 0.190909,
        "roughnessFactor": 0.0
      }
    },
    {
      "doubleSided": true,
      "name": "Material.002",
      "pbrMetallicRoughness": {
        "roughnessFactor": 0.0
      }
    }
  ],
  "meshes": [
    {
      "name": "Object_0",
      "primitives": [
        {
          "attributes": {
            "NORMAL": 1,
            "POSITION": 0,
            "TEXCOORD_0": 2
          },
          "indices": 3,
          "material": 0,
          "mode": 4
        }
      ]
    },
    {
      "name": "Object_1",
      "primitives": [
        {
          "attributes": {
            "NORMAL": 5,
            "POSITION": 4,
            "TEXCOORD_0": 6
          },
          "indices": 7,
          "material": 1,
          "mode": 4
        }
      ]
    },
    {
      "name": "Object_2",
      "primitives": [
        {
          "attributes": {
            "NORMAL": 9,
            "POSITION": 8,
            "TEXCOORD_0": 10
          },
          "indices": 11,
          "material": 0,
          "mode": 4
        }
      ]
    },
    {
      "name": "Object_3",
      "primitives": [
        {
          "attributes": {
            "NORMAL": 13,
            "POSITION": 12,
            "TEXCOORD_0": 14
          },
          "indices": 15,
          "material": 0,
          "mode": 4
        }
      ]
    },
    {
      "name": "Object_4",
      "primitives": [
        {
          "attributes": {
            "NORMAL": 17,
            "POSITION": 16,
            "TEXCOORD_0": 18
          },
          "indices": 19,
          "material": 0,
          "mode": 4
        }
      ]
    },
    {
      "name": "Object_5",
      "primitives": [
        {
          "attributes": {
            "NORMAL": 21,
            "POSITION": 20,
            "TEXCOORD_0": 22
          },
          "indices": 23,
          "material": 0,
          "mode": 4
        }
      ]
    },
    {
      "name": "Object_6",
      "primitives": [
        {
          "attributes": {
            "NORMAL": 25,
            "POSITION": 24,
            "TEXCOORD_0": 26
          },
          "indices": 27,
          "material": 2,
          "mode": 4
        }
      ]
    },
    {
      "name": "Object_7",
      "primitives": [
        {
          "attributes": {
            "NORMAL": 29,
            "POSITION": 28,
            "TEXCOORD_0": 30
          },
          "indices": 31,
          "material": 1,
          "mode": 4
        }
      ]
    }
  ],
  "nodes": [
    {
      "children": [
        1
      ],
      "matrix": [
        1.0,
        0.0,
        0.0,
        0.0,
        0.0,
        2.220446049250313e-16,
        -1.0,
        0.0,
        0.0,
        1.0,
        2.220446049250313e-16,
        0.0,
        0.0,
        0.0,
        0.0,
        1.0
      ],
      "name": "Sketchfab_model"
    },
    {
      "children": [
        2
      ],
      "name": "root"
    },
    {
      "children": [
        3,
        5,
        7,
        11,
        14
      ],
      "matrix": [
        1.0,
        0.0,
        0.0,
        0.0,
        0.0,
        2.220446049250313e-16,
        1.0,
        0.0,
        0.0,
        -1.0,
        2.220446049250313e-16,
        0.0,
        0.0,
        0.0,
        0.0,
        1.0
      ],
      "name": "GLTF_SceneRootNode"
    },
    {
      "children": [
        4
      ],
      "matrix": [
        -0.03097782255993801,
        -0.0023071439289949207,
        -0.00783316660596275,
        0.0,
        0.03926040153658395,
        -0.01248897793242437,
        -0.15158465822904998,
        0.0,
        0.0011833092718970498,
        -0.023503219674389453,
        0.0022428944524008378,
        0.0,
        -0.6184674501419067,
        0.3935354948043823,
        -0.7137072682380676,
        1.0
      ],
      "name": "pCube7_0"
    },
    {
      "mesh": 0,
      "name": "Object_4"
    },
    {
      "children": [
        6
      ],
      "matrix": [
        0.5379349187786517,
        -0.01616345506088291,
        -0.061130143337335255,
        0.0,
        -0.006714981143323886,
        -0.5352850646156251,
        0.08244432248311555,
        0.0,
        -0.0628733707704724,
        -0.08112272795072692,
        -0.5318253198213999,
        0.0,
        0.3353729844093323,
        0.41401541233062744,
        0.09002262353897095,
        1.0
      ],
      "name": "pPlane1_1"
    },
    {
      "mesh": 1,
      "name": "Object_6"
    },
    {
      "children": [
        8,
        9,
        10
      ],
      "matrix": [
        0.12111442536115646,
        0.0,
        0.0,
        0.0,
        0.0,
        0.0323585908730528,
        0.11671171244792874,
        0.0,
        0.0,
        -0.11671171244792874,
        0.0323585908730528,
        0.0,
        -0.025370672345161438,
        0.4349595904350281,
        0.061345577239990234,
        1.0
      ],
      "name": "polySurface4_2"
    },
    {
      "mesh": 2,
      "name": "Object_8"
    },
    {
      "mesh": 3,
      "name": "Object_9"
    },
    {
      "mesh": 4,
      "name": "Object_10"
    },
    {
      "children": [
        12,
        13
      ],
      "matrix": [
        -0.030687909164228512,
        0.003239065984485777,
        -0.008606238825997476,
        0.0,
        0.04099506650947989,
        -0.013021158079544596,
        -0.15107984959827003,
        0.0,
        -0.0028252029858352457,
        -0.023436714722117728,
        0.001253335792021837,
        0.0,
        0.6541147828102112,
        0.5235301852226257,
        -0.2438342273235321,
        1.0
      ],
      "name": "pCube6_3"
    },
    {
      "mesh": 5,
      "name": "Object_12"
    },
    {
      "mesh": 6,
      "name": "Object_13"
    },
    {
      "children": [
        15
      ],
      "matrix": [
        -0.5373289210732723,
        -0.0037281151772040385,
        -0.06796993542057532,
        -0.0,
        -0.006714960096296844,
        -0.5352850393465391,
        0.08244448826142375,
        -0.0,
        0.06774195309691008,
        -0.08263341771711155,
        -0.5309942321836918,
        -0.0,
        -0.3873365521430969,
        0.41667070984840393,
        0.08921945095062256,
        1.0
      ],
      "name": "pPlane3_4"
    },
    {
      "mesh": 7,
      "name": "Object_15"
    }
  ],
  "scene": 0,
  "scenes": [
    {
      "name": "Sketchfab_Scene",
      "nodes": [
        0
      ]
    }
  ]
}
